<?xml version="1.0" encoding="utf-8"?>
<!-- Generator: Adobe Illustrator 24.0.1, SVG Export Plug-In . SVG Version: 6.00 Build 0)  -->
<svg version="1.1" id="Capa_1" xmlns="http://www.w3.org/2000/svg" xmlns:xlink="http://www.w3.org/1999/xlink" x="0px" y="0px"
	 viewBox="0 0 576 512" style="enable-background:new 0 0 576 512;" xml:space="preserve">
<style type="text/css">
	.st0{fill:none;stroke:#333333;stroke-width:27;stroke-miterlimit:10;}
</style>
<path class="st0" d="M527.8,63.4h-42.1c-3.6,0-6.7,2.5-7.3,6l-47.8,251c-5.9,31.4-33.4,54.2-65.5,54.2h-267
	c-12.3,0-22.2-9.9-22.2-22.2s9.9-22.2,22.2-22.2h267c10.6,0,19.8-7.6,21.9-18.1l5-26.4H124.8c-30.1,0-56.5-20.3-64.4-49.4l-38-141
	C16,71.7,33.8,48.6,58.2,48.6h380.6c8.4-17.8,26.5-29.6,46.9-29.6h42.1c12.3,0,22.2,9.9,22.2,22.2S540.1,63.4,527.8,63.4z
	 M431.5,448.6c0,24.5-19.9,44.5-44.5,44.5s-44.5-19.9-44.5-44.5c0-24.5,19.9-44.5,44.5-44.5S431.5,424.1,431.5,448.6L431.5,448.6z
	 M164.8,448.6c0,24.5-19.9,44.5-44.5,44.5l0,0c-24.5,0-44.5-19.9-44.5-44.5c0-24.5,19.9-44.5,44.5-44.5S164.8,424.1,164.8,448.6z"/>
</svg>
